#!OML:ASF Y:\EmotionMaleHayes\Project 1\Capture day 1\Session 1\Male1.ASF
:FULLY-SPECIFIED
:DEGREES
1168
root 39.5659 16.82 -12.8885 -2.83379 54.6085 5.68377
lowerback 6.85936 1.34715 -3.44617
upperback 1.62616 1.58047 0.401113
thorax -2.26887 0.814477 2.20995
lowerneck -20.5402 -5.7519 -1.707
upperneck 22.1042 -8.14375 2.64837
head 10.6896 -3.5016 0.00242786
rclavicle 3.39611e-014 2.78299e-015
rhumerus -36.9829 5.55889 -83.1503
rradius 42.4879
rwrist -2.91131
rhand -9.16273 -31.8984
rfingers 7.12502
rthumb 16.7898 -61.1925
lclavicle 3.39611e-014 2.78299e-015
lhumerus -42.2769 -3.57421 86.4771
lradius 26.1462
lwrist -11.9528
lhand -12.947 -20.7514
lfingers 7.12502
lthumb 13.1443 8.81431
rfemur 12.0991 -12.8839 19.4349
rtibia 6.54774
rfoot -15.4034 1.80589
rtoes 34.9018
lfemur 2.85876 5.91304 -14.6292
ltibia 57.4972
lfoot -3.8038 2.32772
ltoes -11.7564
1169
root 39.6339 16.8148 -12.8316 -2.79544 53.9445 5.92587
lowerback 7.06159 1.57005 -3.54767
upperback 1.63535 1.85945 0.275242
thorax -2.38885 0.955896 2.1065
lowerneck -20.2912 -5.93291 -1.84124
upperneck 22.0687 -8.37082 2.70825
head 10.6445 -3.61352 0.017775
rclavicle 5.9213e-014 -5.1684e-015
rhumerus -36.4267 6.12059 -83.2367
rradius 42.5433
rwrist -2.78566
rhand -8.99735 -32.1149
rfingers 7.12502
rthumb 16.949 -61.3954
lclavicle 5.9213e-014 -5.1684e-015
lhumerus -42.4308 -2.83665 85.6123
lradius 26.0149
lwrist -12.0457
lhand -12.6278 -20.7535
lfingers 7.12502
lthumb 13.452 8.79214
rfemur 12.6797 -12.6621 19.1575
rtibia 6.43109
rfoot -15.4171 2.32579
rtoes 34.5502
lfemur 1.71868 5.84171 -14.9299
ltibia 57.5547
lfoot -5.03503 2.60314
ltoes -12.2315
1170
root 39.7056 16.8118 -12.7776 -2.92899 53.4021 6.03306
lowerback 7.31097 1.71136 -3.54246
upperback 1.66699 2.03688 0.183893
thorax -2.50271 1.04585 1.98599
lowerneck -20.2026 -6.08847 -1.93062
upperneck 22.2161 -8.54324 2.61415
head 10.6852 -3.70932 -0.0273033
rclavicle -4.60932e-015 0
rhumerus -35.8067 6.89568 -83.3775
rradius 42.5121
rwrist -2.78785
rhand -8.94852 -32.1479
rfingers 7.12502
rthumb 16.996 -61.4243
lclavicle -4.60932e-015 0
lhumerus -42.6321 -2.22884 84.921
lradius 25.8392
lwrist -11.9109
lhand -12.9008 -20.9284
lfingers 7.12502
lthumb 13.1888 8.63448
rfemur 13.4149 -12.1215 19.1504
rtibia 6.12663
rfoot -15.4996 2.36744
rtoes 34.3461
lfemur 0.709886 5.63441 -15.1432
ltibia 57.4642
lfoot -5.99295 2.83083
ltoes -11.6829
1171
root 39.7799 16.8117 -12.7244 -3.12459 52.9367 6.03384
lowerback 7.54155 1.80447 -3.40307
upperback 1.66465 2.15957 0.071427
thorax -2.63165 1.10797 1.77269
lowerneck -19.9698 -6.20857 -2.20679
upperneck 22.2791 -8.69358 2.8573
head 10.695 -3.77217 0.0856947
rclavicle -2.21024e-014 -1.23246e-014
rhumerus -35.1434 7.34444 -83.5138
rradius 42.4044
rwrist -2.56623
rhand -8.97489 -32.2326
rfingers 7.12502
rthumb 16.9706 -61.5113
lclavicle -2.21024e-014 -1.23246e-014
lhumerus -42.9945 -1.8003 84.3152
lradius 25.8092
lwrist -11.3419
lhand -13.2629 -21.0964
lfingers 7.12502
lthumb 12.8398 8.4887
rfemur 14.1193 -11.6472 19.2296
rtibia 5.85149
rfoot -15.6966 2.42051
rtoes 33.946
lfemur -0.248548 5.23277 -15.344
ltibia 57.2066
lfoot -7.11101 3.11797
ltoes -12.6459
1172
root 39.8546 16.8158 -12.6677 -3.21868 52.4837 6.05219
lowerback 7.39894 1.90647 -3.283
upperback 1.84937 2.31235 -0.0526139
thorax -2.36026 1.17814 1.57028
lowerneck -20.0205 -6.47734 -2.34284
upperneck 22.2622 -9.04555 2.92201
head 10.7183 -3.93584 0.0740614
rclavicle -2.44132e-015 -1.09332e-014
rhumerus -34.2478 7.54026 -83.5272
rradius 42.3672
rwrist -2.23064
rhand -8.92992 -32.228
rfingers 7.12502
rthumb 17.0139 -61.5029
lclavicle -2.44132e-015 -1.09332e-014
lhumerus -43.0537 -1.23947 83.6325
lradius 25.7698
lwrist -11.2744
lhand -13.7082 -21.3543
lfingers 7.12502
lthumb 12.4105 8.25733
rfemur 14.6785 -11.2543 19.2788
rtibia 5.67412
rfoot -15.9015 2.56933
rtoes 33.5667
lfemur -1.27514 4.73561 -15.6033
ltibia 56.791
lfoot -8.18289 3.42585
ltoes -13.7907
